<svg width="100" height="72" viewBox="0 0 100 72" fill="none" xmlns="http://www.w3.org/2000/svg">
<rect x="3.78662" y="41.2131" width="30" height="30" rx="5" transform="rotate(-45 3.78662 41.2131)" fill="black"/>
<rect x="53.7869" y="41" width="30" height="30" rx="5" transform="rotate(-45 53.7869 41)" fill="black"/>
<path d="M35 31H15V51H35V31Z" fill="black"/>
<path d="M31.4001 32.6H18.6001C17.4954 32.6 16.6001 33.4953 16.6001 34.6V47.4C16.6001 48.5047 17.4954 49.4 18.6001 49.4H31.4001C32.5048 49.4 33.4001 48.5047 33.4001 47.4V34.6C33.4001 33.4953 32.5048 32.6 31.4001 32.6ZM29.8001 38.6H29.0001C28.1438 38.6 27.8001 38.8 27.8001 39.4V40.6H29.8001L29.4001 42.6H27.8001V48.6H25.8001V42.6H24.2001V40.6H25.8001V39.4C25.8001 37.8 26.6001 36.6 28.2001 36.6C29.3595 36.6 29.8001 37 29.8001 37V38.6Z" fill="#FAD41B"/>
<path d="M75.3983 50.2C70.3249 50.2 66.1968 46.0735 66.1968 41C66.1968 35.9266 70.3249 31.8 75.3983 31.8C77.6968 31.8 79.8968 32.6516 81.5952 34.1985L81.9046 34.4813L78.8702 37.5157L78.589 37.275C77.6983 36.5125 76.5655 36.0922 75.3983 36.0922C72.6921 36.0922 70.489 38.2938 70.489 41C70.489 43.7063 72.6921 45.9079 75.3983 45.9079C77.3499 45.9079 78.8921 44.911 79.6187 43.2125H74.9983V39.0704L84.0187 39.0829L84.0858 39.4C84.5562 41.6329 84.1796 44.9172 82.2733 47.2672C80.6952 49.2125 78.3827 50.2 75.3983 50.2Z" fill="#FAD41B"/>
</svg>
