<svg width="20" height="20" viewBox="0 0 20 20" fill="none" xmlns="http://www.w3.org/2000/svg">
<g clip-path="url(#clip0)">
<path d="M17.4533 10.8158C17.0458 14.5733 13.865 17.5 10 17.5C7.75167 17.5 5.74 16.505 4.36417 14.9375L5.40167 13.5767C6.47083 14.9475 8.13167 15.8333 10 15.8333C12.9383 15.8333 15.37 13.6467 15.7692 10.8158H13.3333L16.6667 6.44083L20 10.8158H17.4533ZM4.23333 9.16667C4.63917 6.34417 7.06667 4.16667 10 4.16667C11.8642 4.16667 13.5233 5.04917 14.5917 6.415L15.6283 5.055C14.2533 3.49167 12.2442 2.5 10 2.5C6.14 2.5 2.96417 5.4175 2.54917 9.16667H0L3.33333 13.5417L6.66667 9.16667H4.23333Z" fill="white"/>
</g>
<defs>
<clipPath id="clip0">
<rect width="20" height="20" fill="white"/>
</clipPath>
</defs>
</svg>
