<svg width="20" height="14" viewBox="0 0 20 14" fill="none" xmlns="http://www.w3.org/2000/svg">
<path d="M16.125 5.03333C15.5583 2.15833 13.0333 0 10 0C7.59167 0 5.5 1.36667 4.45833 3.36667C1.95 3.63333 0 5.75833 0 8.33333C0 11.0917 2.24167 13.3333 5 13.3333H15.8333C18.1333 13.3333 20 11.4667 20 9.16666C20 6.96666 18.2917 5.18333 16.125 5.03333ZM15.8333 11.6667H5C3.15833 11.6667 1.66667 10.175 1.66667 8.33333C1.66667 6.625 2.94167 5.2 4.63333 5.025L5.525 4.93333L5.94167 4.14167C6.73333 2.61667 8.28333 1.66667 10 1.66667C12.1833 1.66667 14.0667 3.21667 14.4917 5.35833L14.7417 6.60833L16.0167 6.7C17.3167 6.78333 18.3333 7.875 18.3333 9.16666C18.3333 10.5417 17.2083 11.6667 15.8333 11.6667ZM6.66667 7.5H8.79167V10H11.2083V7.5H13.3333L10 4.16667L6.66667 7.5Z" fill="black"/>
</svg>
